<?xml version="1.0" encoding="iso-8859-1"?>
<!-- Uploaded to: SVG Repo, www.svgrepo.com, Generator: SVG Repo Mixer Tools -->
<svg fill="#000000" height="800px" width="800px" version="1.1" id="Capa_1" xmlns="http://www.w3.org/2000/svg" xmlns:xlink="http://www.w3.org/1999/xlink" 
	 viewBox="0 0 480 480" xml:space="preserve">
<path id="XMLID_867_" d="M148.113,60.71l12.837-12.838h-4.708c-5.522,0-10-4.478-10-10s4.478-10,10-10h20.145
	c5.522,0,10.457,3.297,12.57,8.399s0.956,10.923-2.949,14.828l-12.837,12.837h4.709c5.522,0,10,4.478,10,10s-4.478,10-10,10h-20.145
	c-5.522,0-10.456-3.296-12.569-8.397C143.052,70.437,144.209,64.616,148.113,60.71z M208,110h2c5.522,0,10-4.478,10-10
	s-4.478-10-10-10h-2c-5.522,0-10,4.478-10,10S202.478,110,208,110z M65.383,73.816c2.546,6.147,8.491,10.12,15.146,10.12h35.714
	c5.522,0,10-4.478,10-10s-4.478-10-10-10H89.235l35.95-35.95c4.705-4.706,6.101-11.719,3.554-17.866
	C126.193,3.973,120.248,0,113.594,0H77.88c-5.522,0-10,4.478-10,10s4.478,10,10,10h27.007l-35.95,35.95
	C64.231,60.656,62.836,67.669,65.383,73.816z M480,100v350c0,16.542-13.458,30-30,30h-50c-13.037,0-24.159-8.359-28.286-20H108.286
	c-4.127,11.641-15.249,20-28.286,20H30c-16.542,0-30-13.458-30-30V100c0-5.522,4.478-10,10-10s10,4.478,10,10v22.05
	C81.837,133.644,159.539,140,240,140s158.163-6.356,220-17.95V100c0-5.522,4.478-10,10-10S480,94.478,480,100z M250,370h95V156.342
	c-30.598,2.183-62.544,3.415-95,3.626c0,0.011,0,0.021,0,0.032V370z M135,370h95V160c0-0.011,0-0.021,0-0.032
	c-32.456-0.211-64.402-1.443-95-3.626V370z M20,370h95V154.764c-34.071-2.953-66.146-7.113-95-12.375V370z M460,390H20v60
	c0,5.514,4.486,10,10,10h50c5.514,0,10-4.486,10-10c0-5.522,4.478-10,10-10h280c5.522,0,10,4.478,10,10c0,5.514,4.486,10,10,10h50
	c5.514,0,10-4.486,10-10V390z M460,142.389c-28.854,5.262-60.929,9.422-95,12.375V370h95V142.389z"/>
</svg>