<?xml version="1.0" encoding="UTF-8"?>
<svg version="1.1" xmlns="http://www.w3.org/2000/svg" width="1199" height="330">
<path d="M0 0 C1.27260913 2.41795734 2.08754084 4.12459159 1.8125 6.875 C0.63282768 9.96029684 -0.66372285 12.97885167 -2 16 C-2.66 16 -3.32 16 -4 16 C-4.13277344 16.61488281 -4.26554687 17.22976562 -4.40234375 17.86328125 C-4.57894531 18.67152344 -4.75554687 19.47976562 -4.9375 20.3125 C-5.11152344 21.11300781 -5.28554687 21.91351563 -5.46484375 22.73828125 C-6 25 -6 25 -7 28 C-7.66 28 -8.32 28 -9 28 C-9.12117188 28.78503906 -9.24234375 29.57007813 -9.3671875 30.37890625 C-10.27356009 36.0611652 -11.40426273 41.46811079 -13 47 C-13.92880886 53.03396396 -14.15272149 58.9012713 -14.125 65 C-14.12886719 65.85078125 -14.13273437 66.7015625 -14.13671875 67.578125 C-14.12570601 74.75842975 -13.85278348 81.31033331 -11 88 C-10.60196978 89.9329002 -10.2288999 91.87103506 -9.875 93.8125 C-8.44444249 100.36610116 -5.84633983 105.84425763 -2.69287109 111.70629883 C0 116.73520738 0 116.73520738 0 120 C0.66 120 1.32 120 2 120 C5 124.38461538 5 124.38461538 5 127 C5.66 127 6.32 127 7 127 C10 131.38461538 10 131.38461538 10 134 C10.639375 134.268125 11.27875 134.53625 11.9375 134.8125 C14 136 14 136 15 139 C15.66 139.33 16.32 139.66 17 140 C17.66 140.33 18.32 140.66 19 141 C19.33 141.99 19.66 142.98 20 144 C22.50447516 145.21869929 22.50447516 145.21869929 25 146 C25 146.66 25 147.32 25 148 C27.33214148 149.20628008 29.49642139 150.1654738 32 151 C32.33 151.66 32.66 152.32 33 153 C34.97522846 154.04808041 36.97481509 155.0520411 39 156 C39 156.66 39 157.32 39 158 C39.69480469 158.11601562 40.38960937 158.23203125 41.10546875 158.3515625 C44.33234644 159.07445278 47.2375588 160.15975378 50.3125 161.375 C51.46363281 161.82230469 52.61476562 162.26960937 53.80078125 162.73046875 C55.59742529 163.44342273 57.39032972 164.16668134 59.16796875 164.92578125 C75.7234439 171.80918776 103.92340423 172.63485918 120.60546875 165.95703125 C124.14771233 164.54128953 127.25210259 164.28215675 131 165 C134 167 134 167 136 170 C136.7285906 175.73765099 136.02337096 178.9957998 133 184 C132.59007812 184.70898438 132.18015625 185.41796875 131.7578125 186.1484375 C129.25777417 190.36447848 129.25777417 190.36447848 128 192 C127.34 192 126.68 192 126 192 C125.6596875 193.0828125 125.6596875 193.0828125 125.3125 194.1875 C123.43721746 198.20596258 120.83374594 201.1093234 116.8125 203.0625 C114.84276468 203.85136668 114.84276468 203.85136668 114.10546875 205.85546875 C112.86823621 208.25561244 111.55923154 209.52233964 109.5 211.25 C108.8915625 211.77078125 108.283125 212.2915625 107.65625 212.828125 C106 214 106 214 104 214 C104 214.66 104 215.32 104 216 C99.61538462 219 99.61538462 219 97 219 C97 219.66 97 220.32 97 221 C83.3557125 228.78689135 69.4658434 236.08387546 53.79296875 238.640625 C51.9844004 238.83081574 51.9844004 238.83081574 51 240 C43.75698695 241.31354771 36.4460995 241.15198709 29.10913086 241.13037109 C26.93921957 241.12500425 24.76951443 241.13034461 22.59960938 241.13671875 C21.20052038 241.136058 19.80143152 241.13477692 18.40234375 241.1328125 C17.14929443 241.13168457 15.89624512 241.13055664 14.60522461 241.12939453 C8.42650725 240.90763519 2.90780057 239.74328542 -3 238 C-4.9368903 237.53909692 -6.87445216 237.08101126 -8.8125 236.625 C-14.44281022 235.24049749 -19.69073787 233.31399257 -25 231 C-25 230.34 -25 229.68 -25 229 C-28.3 228.01 -31.6 227.02 -35 226 C-35 225.34 -35 224.68 -35 224 C-35.86625 223.814375 -35.86625 223.814375 -36.75 223.625 C-39.02335767 222.99351176 -40.9253529 222.11141809 -43 221 C-43 220.34 -43 219.68 -43 219 C-43.66 218.79375 -44.32 218.5875 -45 218.375 C-49.07180186 216.50875748 -52.68796998 214.02438473 -56 211 C-56 210.34 -56 209.68 -56 209 C-56.88365234 208.62294922 -56.88365234 208.62294922 -57.78515625 208.23828125 C-60.27644202 206.84544599 -61.62300414 205.3791428 -63.4375 203.1875 C-65.45795529 200.79144725 -67.44030482 198.56993483 -69.6875 196.375 C-73.94189477 192.00562159 -76.94889896 186.58401985 -80.1875 181.4375 C-80.88230469 180.34308594 -81.57710937 179.24867188 -82.29296875 178.12109375 C-83.8471328 175.2794986 -84.60286765 173.18298619 -85 170 C-85.66 170 -86.32 170 -87 170 C-93.8974234 152.71045867 -98.20437612 136.23924524 -98.1875 117.5 C-98.18669434 116.55382812 -98.18588867 115.60765625 -98.18505859 114.6328125 C-98.13164904 108.38284771 -97.80528349 102.21303885 -97.125 96 C-97.04660889 95.27748047 -96.96821777 94.55496094 -96.88745117 93.81054688 C-96.37388922 89.6547819 -95.42667801 85.92885176 -94 82 C-93.53572361 80.41839913 -93.07713034 78.83511578 -92.625 77.25 C-91.07704986 72.02666057 -89.10460488 67.02113854 -87 62 C-86.34 62 -85.68 62 -85 62 C-84.87625 61.2575 -84.7525 60.515 -84.625 59.75 C-84.04513299 57.19858515 -83.26291261 55.2732427 -82 53 C-81.34 53 -80.68 53 -80 53 C-79.9071875 51.948125 -79.9071875 51.948125 -79.8125 50.875 C-78.73774584 47.07202373 -76.57788151 44.95513247 -74 42 C-73.67 41.319375 -73.34 40.63875 -73 39.9375 C-71.53340424 37.09597072 -69.27820577 35.22396277 -67 33 C-66.278125 32.071875 -65.55625 31.14375 -64.8125 30.1875 C-64.214375 29.465625 -63.61625 28.74375 -63 28 C-62.34 28 -61.68 28 -61 28 C-60.731875 27.360625 -60.46375 26.72125 -60.1875 26.0625 C-59 24 -59 24 -56 23 C-54.31066078 21.3563186 -52.64740076 19.6857124 -51 18 C-45.49864499 13 -45.49864499 13 -43 13 C-43 12.34 -43 11.68 -43 11 C-41.84242187 10.42378906 -40.68484375 9.84757812 -39.4921875 9.25390625 C-36.67327805 7.8456917 -33.86629948 6.41799328 -31.0703125 4.96484375 C-9.36912373 -6.24608248 -9.36912373 -6.24608248 0 0 Z " fill="#000000" transform="translate(129,36)"/>
<path d="M0 0 C5.08624889 -0.04985767 10.17235197 -0.08593386 15.25878906 -0.10986328 C16.98505129 -0.11985099 18.71129691 -0.13344583 20.4375 -0.15087891 C29.54116273 -0.2404404 38.12327097 -0.31487595 47 2 C47 2.66 47 3.32 47 4 C47.7425 4.0825 48.485 4.165 49.25 4.25 C52.58859072 5.16052474 53.85414021 6.31767527 56 9 C56.75 11.25 56.75 11.25 57 13 C57.66 13 58.32 13 59 13 C60.85788458 19.96706718 61.11138078 26.61573348 57.6875 33.0625 C55.47598253 36.84133916 55.47598253 36.84133916 52 38 C52 38.66 52 39.32 52 40 C52.66 40 53.32 40 54 40 C54 40.66 54 41.32 54 42 C54.99 42.33 55.98 42.66 57 43 C57 43.66 57 44.32 57 45 C57.66 45 58.32 45 59 45 C61.47014347 48.7738303 61.29759243 52.58675876 61.25 56.9375 C61.26160156 57.99227539 61.26160156 57.99227539 61.2734375 59.06835938 C61.24720478 66.06593732 59.33003656 70.24621203 54.77734375 75.35546875 C47.98885418 81.63668657 39.85224837 82.15756434 31.05078125 82.203125 C29.77003975 82.21167511 29.77003975 82.21167511 28.46342468 82.22039795 C26.66565174 82.2298143 24.8678618 82.2363685 23.07006836 82.24023438 C20.31138676 82.25000394 17.55343087 82.28108358 14.79492188 82.3125 C13.04687942 82.31902445 11.29883165 82.32427711 9.55078125 82.328125 C8.31017693 82.3466452 8.31017693 82.3466452 7.04450989 82.36553955 C4.7277832 82.35644531 4.7277832 82.35644531 1 82 C-1.40654771 78.39017844 -1.27608683 75.79015384 -1.24291992 71.62280273 C-1.24481827 70.87455231 -1.24671661 70.12630188 -1.24867249 69.3553772 C-1.25237814 66.8813429 -1.24167983 64.40760197 -1.23046875 61.93359375 C-1.2292768 60.21631403 -1.22882382 58.49903365 -1.2290802 56.78175354 C-1.22751574 53.18299274 -1.21922834 49.58433147 -1.20581055 45.9855957 C-1.18880801 41.36619866 -1.1849966 36.7469109 -1.18575573 32.12748623 C-1.1854842 28.58196463 -1.18000587 25.03646706 -1.17275429 21.49095345 C-1.16956619 19.78725428 -1.16759988 18.08355238 -1.16686058 16.37985039 C-1.16469924 14.00245369 -1.15595984 11.62517434 -1.14526367 9.24780273 C-1.14571686 8.53969955 -1.14617004 7.83159637 -1.14663696 7.10203552 C-1.11447933 2.22895867 -1.11447933 2.22895867 0 0 Z M20 16 C20 21.61 20 27.22 20 33 C24.95 33 29.9 33 35 33 C35 32.34 35 31.68 35 31 C36.2065625 30.6596875 36.2065625 30.6596875 37.4375 30.3125 C40.18987498 29.25509991 40.18987498 29.25509991 40.9375 26.6875 C41.01123391 23.51694173 40.53272852 21.77350874 39 19 C36.41300928 16.34975767 35.0903597 16.00720955 31.328125 15.70703125 C29.96840181 15.72403693 28.60892078 15.76279411 27.25 15.8125 C23.66125 15.9053125 23.66125 15.9053125 20 16 Z M20 48 C20 53.61 20 59.22 20 65 C22.536875 65.061875 25.07375 65.12375 27.6875 65.1875 C28.87218872 65.22846802 28.87218872 65.22846802 30.08081055 65.27026367 C34.60318145 65.32344113 37.43303549 64.81674253 41 62 C42.5121867 58.97562661 42.17263369 56.33758466 42 53 C41.32575833 50.64539322 41.32575833 50.64539322 40 49 C37.29283758 48.09761253 35.76223232 47.88148698 32.98828125 47.90234375 C32.30548096 47.90484131 31.62268066 47.90733887 30.91918945 47.90991211 C30.05898193 47.91901611 29.19877441 47.92812012 28.3125 47.9375 C25.569375 47.958125 22.82625 47.97875 20 48 Z " fill="#000000" transform="translate(459,55)"/>
<path d="M0 0 C39 0 39 0 48 2 C48 2.66 48 3.32 48 4 C48.721875 4.061875 49.44375 4.12375 50.1875 4.1875 C53.90666917 5.26192665 55.54777495 7.05732994 58 10 C58 10.99 58 11.98 58 13 C58.66 13 59.32 13 60 13 C62.9841468 21.57942205 62.56108041 29.35635361 60 38 C59.34 38 58.68 38 58 38 C57.814375 38.721875 57.62875 39.44375 57.4375 40.1875 C55.94253673 43.11242814 55.04246557 43.88171018 52.41015625 45.67578125 C51.77343994 46.11446533 51.13672363 46.55314941 50.48071289 47.00512695 C49.99207764 47.33343506 49.50344238 47.66174316 49 48 C49.27263672 48.49927002 49.54527344 48.99854004 49.82617188 49.51293945 C51.05726849 51.77600018 52.27871213 54.04413199 53.5 56.3125 C53.92925781 57.09818359 54.35851562 57.88386719 54.80078125 58.69335938 C55.20683594 59.45068359 55.61289062 60.20800781 56.03125 60.98828125 C56.59682617 62.03302612 56.59682617 62.03302612 57.17382812 63.09887695 C58 65 58 65 58 68 C58.66 68 59.32 68 60 68 C60.99 70.97 61.98 73.94 63 77 C63.66 77 64.32 77 65 77 C65 78.65 65 80.3 65 82 C61.72946483 82.11608726 58.4594582 82.18720711 55.1875 82.25 C54.25873047 82.28351563 53.32996094 82.31703125 52.37304688 82.3515625 C51.0340332 82.37089844 51.0340332 82.37089844 49.66796875 82.390625 C48.84578857 82.41157227 48.0236084 82.43251953 47.17651367 82.45410156 C45 82 45 82 43.30859375 80.17333984 C41.59360521 77.32505104 40.19464734 74.3986606 38.8125 71.375 C38.28269531 70.22773437 37.75289063 69.08046875 37.20703125 67.8984375 C36 65 36 65 36 63 C35.34 63 34.68 63 34 63 C33.01 59.7 32.02 56.4 31 53 C27.04 53 23.08 53 19 53 C19 62.57 19 72.14 19 82 C12.73 82 6.46 82 0 82 C0 54.94 0 27.88 0 0 Z M19 16 C19 22.6 19 29.2 19 36 C23.0528125 36.0928125 23.0528125 36.0928125 27.1875 36.1875 C28.02949951 36.21481201 28.87149902 36.24212402 29.73901367 36.27026367 C34.31952096 36.32089807 37.28298447 35.98082993 41 33 C42.1977191 30.60456179 42.3052625 28.86030046 42.4375 26.1875 C42.52837891 24.90939453 42.52837891 24.90939453 42.62109375 23.60546875 C41.86636409 20.43940155 40.46256786 18.8998803 37.87817383 16.95288086 C34.39718354 15.18682014 30.93715839 15.47915511 27.125 15.6875 C24.44375 15.790625 21.7625 15.89375 19 16 Z " fill="#000000" transform="translate(361,55)"/>
<path d="M0 0 C39 0 39 0 48 2 C48 2.66 48 3.32 48 4 C48.53625 4.061875 49.0725 4.12375 49.625 4.1875 C54.35939307 5.80716079 57.2944334 8.83216563 59.8125 13 C62.6866514 20.26101405 62.5157426 27.421287 61 35 C60.34 35 59.68 35 59 35 C58.938125 35.721875 58.87625 36.44375 58.8125 37.1875 C57.7400054 40.8999813 55.83783356 42.42615096 53 45 C51.66185324 46.32850246 50.32765965 47.66101703 49 49 C49.95712891 50.62808594 49.95712891 50.62808594 50.93359375 52.2890625 C51.76871091 53.73409669 52.60331959 55.17942484 53.4375 56.625 C53.85837891 57.33785156 54.27925781 58.05070312 54.71289062 58.78515625 C57.05500552 62.86980462 58.58497177 66.21585645 59 71 C59.66 71 60.32 71 61 71 C63.34552782 75.20240402 64 77.01112101 64 82 C57.4 82 50.8 82 44 82 C41 76 41 76 41 73 C40.34 73 39.68 73 39 73 C38.74605469 72.41992188 38.49210938 71.83984375 38.23046875 71.2421875 C36.64816312 67.65088708 35.05736546 64.11063338 33.25 60.625 C32 58 32 58 32 55 C31.34 55 30.68 55 30 55 C30 54.34 30 53.68 30 53 C26.37 53 22.74 53 19 53 C19 62.57 19 72.14 19 82 C12.73 82 6.46 82 0 82 C0 54.94 0 27.88 0 0 Z M19 16 C19 22.6 19 29.2 19 36 C23.0528125 36.0928125 23.0528125 36.0928125 27.1875 36.1875 C28.02949951 36.21481201 28.87149902 36.24212402 29.73901367 36.27026367 C34.31952096 36.32089807 37.28298447 35.98082993 41 33 C42.1977191 30.60456179 42.3052625 28.86030046 42.4375 26.1875 C42.52837891 24.90939453 42.52837891 24.90939453 42.62109375 23.60546875 C41.86636409 20.43940155 40.46256786 18.8998803 37.87817383 16.95288086 C34.39718354 15.18682014 30.93715839 15.47915511 27.125 15.6875 C24.44375 15.790625 21.7625 15.89375 19 16 Z " fill="#000000" transform="translate(621,55)"/>
<path d="M0 0 C6.97125 -0.04125 13.9425 -0.0825 21.125 -0.125 C23.31527832 -0.14320801 25.50555664 -0.16141602 27.76220703 -0.18017578 C29.5107397 -0.18602055 31.2592751 -0.19111614 33.0078125 -0.1953125 C33.90556396 -0.20554443 34.80331543 -0.21577637 35.72827148 -0.22631836 C40.56588718 -0.22765879 44.45621681 0.11057073 49 2 C49 2.66 49 3.32 49 4 C49.61875 4.0825 50.2375 4.165 50.875 4.25 C53 5 53 5 54.0625 7 C54.371875 7.66 54.68125 8.32 55 9 C55.99 9.33 56.98 9.66 58 10 C58.9140625 12.25 58.9140625 12.25 59.625 15 C60.287116 18.28439007 60.287116 18.28439007 62 21 C62.68053601 29.16643218 60.18641697 36.62811629 55 43 C53.06399976 44.52691911 51.13162489 45.74040348 49 47 C49.495 49.97 49.495 49.97 50 53 C50.66 53 51.32 53 52 53 C53.2307339 55.4614678 54.46094872 57.92316264 55.6875 60.38671875 C56.70632809 62.41527825 57.75373432 64.42949613 58.8125 66.4375 C60 69 60 69 60 72 C60.66 72 61.32 72 62 72 C63.49821059 75.37097383 64 77.20442119 64 81 C57.4 81 50.8 81 44 81 C43.01 79.164375 42.02 77.32875 41 75.4375 C40.65880127 74.81705811 40.31760254 74.19661621 39.96606445 73.55737305 C38.21638533 70.36370694 36.59439642 67.15598679 35.10546875 63.83203125 C34.78513672 63.15148682 34.46480469 62.47094238 34.13476562 61.76977539 C33.51508704 60.44848649 32.92500986 59.11280363 32.36914062 57.76342773 C31.42339644 55.60636604 31.42339644 55.60636604 29 53 C25.7 52.67 22.4 52.34 19 52 C19 61.57 19 71.14 19 81 C12.73 81 6.46 81 0 81 C0 54.27 0 27.54 0 0 Z M19 15 C19 21.6 19 28.2 19 35 C23.08375 35.061875 23.08375 35.061875 27.25 35.125 C28.10110352 35.14320801 28.95220703 35.16141602 29.82910156 35.18017578 C35.24391041 35.31523473 35.24391041 35.31523473 40 33 C41.35130832 28.94607504 41.5502924 25.23873875 41 21 C38.88608123 17.50109996 37.88263941 16.29421314 34 15 C31.42502932 14.92964561 28.88550071 14.9065066 26.3125 14.9375 C23.899375 14.958125 21.48625 14.97875 19 15 Z " fill="#000000" transform="translate(417,166)"/>
<path d="M0 0 C1.11375 0.5878125 1.11375 0.5878125 2.25 1.1875 C4.81358081 3.84263727 4.72962542 6.41753678 5 10 C5.66 10 6.32 10 7 10 C7.99 13.63 8.98 17.26 10 21 C11.25296875 20.98839844 12.5059375 20.97679688 13.796875 20.96484375 C15.44791517 20.95546284 17.09895696 20.94636296 18.75 20.9375 C19.575 20.92912109 20.4 20.92074219 21.25 20.91210938 C22.04921875 20.90888672 22.8484375 20.90566406 23.671875 20.90234375 C24.4050293 20.89710693 25.13818359 20.89187012 25.89355469 20.88647461 C28.0461849 21.0024891 29.9314135 21.40926729 32 22 C32 22.66 32 23.32 32 24 C32.66 24 33.32 24 34 24 C34 24.66 34 25.32 34 26 C34.66 26 35.32 26 36 26 C36.46966181 30.79055049 36.77571545 33.92768746 33.875 37.9375 C30.94251801 40.04123708 28.48171656 41.10932832 25 42 C25 42.66 25 43.32 25 44 C23.03852126 45.38938077 21.03833424 46.7260411 19 48 C19.27714844 48.83402344 19.55429688 49.66804688 19.83984375 50.52734375 C25.21429245 67.2244744 25.21429245 67.2244744 22.6875 73 C21 75 21 75 19 76 C14.04312447 76.37410381 10.96549128 76.12432647 7 73 C7 72.34 7 71.68 7 71 C6.13375 70.814375 6.13375 70.814375 5.25 70.625 C2.94900359 69.98583433 1.05890385 69.20694364 -1 68 C-1.33 67.34 -1.66 66.68 -2 66 C-3.98 66 -5.96 66 -8 66 C-8 66.66 -8 67.32 -8 68 C-12.38461538 71 -12.38461538 71 -15 71 C-15.33 71.99 -15.66 72.98 -16 74 C-19.94055586 76.46284741 -23.57002154 76.05293937 -28.01171875 75.6796875 C-30 75 -30 75 -31.25 73.1640625 C-33.89888001 65.52093998 -31.20541847 55.72366225 -27.8984375 48.640625 C-27.60195312 48.09921875 -27.30546875 47.5578125 -27 47 C-27.721875 46.7525 -28.44375 46.505 -29.1875 46.25 C-32.26272577 44.88323299 -34.43436716 43.16053292 -37 41 C-37.99 40.34 -38.98 39.68 -40 39 C-40 38.34 -40 37.68 -40 37 C-41.32 36.67 -42.64 36.34 -44 36 C-45.125 28.375 -45.125 28.375 -44 25 C-41.86655389 22.35859053 -40.28671349 21.63784776 -37 21 C-35.55901569 20.92233916 -34.11491371 20.89203633 -32.671875 20.90234375 C-31.47304687 20.90717773 -31.47304687 20.90717773 -30.25 20.91210938 C-29.425 20.92048828 -28.6 20.92886719 -27.75 20.9375 C-26.90953125 20.94201172 -26.0690625 20.94652344 -25.203125 20.95117188 C-23.13538599 20.96292039 -21.06768376 20.98085478 -19 21 C-19 20.34 -19 19.68 -19 19 C-18.34 19 -17.68 19 -17 19 C-16.9071875 17.329375 -16.9071875 17.329375 -16.8125 15.625 C-16.11485331 10.18916953 -14.06422477 5.52650898 -11 1 C-6.80160149 -2.14879888 -4.55920396 -2.63953914 0 0 Z " fill="#000000" transform="translate(197,78)"/>
<path d="M0 0 C1.054785 0.83791332 2.09832155 1.6903753 3.125 2.5625 C3.82625 3.119375 4.5275 3.67625 5.25 4.25 C14.48856044 15.64422454 15.16615676 30.48454874 14.125 44.5625 C12.58958704 57.1683694 8.46993079 65.07312233 -1.04296875 73.34765625 C-2.875 74.5625 -2.875 74.5625 -5.875 74.5625 C-5.875 75.2225 -5.875 75.8825 -5.875 76.5625 C-15.64336426 79.68837656 -26.10663574 79.68837656 -35.875 76.5625 C-35.875 75.9025 -35.875 75.2425 -35.875 74.5625 C-36.57625 74.52125 -37.2775 74.48 -38 74.4375 C-41.95424013 73.23403561 -44.36769176 70.81079968 -46.875 67.5625 C-46.875 66.9025 -46.875 66.2425 -46.875 65.5625 C-47.865 65.2325 -48.855 64.9025 -49.875 64.5625 C-51.0625 61 -51.0625 61 -51.875 57.5625 C-52.535 57.5625 -53.195 57.5625 -53.875 57.5625 C-55.74209418 50.44976028 -56.18016692 43.89970026 -56.125 36.5625 C-56.13273438 35.53382812 -56.14046875 34.50515625 -56.1484375 33.4453125 C-56.13248618 27.17644424 -55.46710572 21.62766466 -53.875 15.5625 C-53.215 15.5625 -52.555 15.5625 -51.875 15.5625 C-51.75125 14.99402344 -51.6275 14.42554687 -51.5 13.83984375 C-49.67271381 6.99894108 -46.4785621 3.71408343 -40.875 -0.4375 C-40.21113281 -0.97246094 -39.54726563 -1.50742187 -38.86328125 -2.05859375 C-28.52793593 -9.22632832 -9.90931039 -6.78777287 0 0 Z M-31.375 13.703125 C-37.22629663 20.39554552 -37.33917502 31.14743813 -37.109375 39.73046875 C-36.65859292 45.17741883 -35.60195478 50.38163566 -33.875 55.5625 C-33.215 55.5625 -32.555 55.5625 -31.875 55.5625 C-31.648125 56.160625 -31.42125 56.75875 -31.1875 57.375 C-29.43323799 60.29877001 -28.00650836 61.20097463 -24.875 62.5625 C-20.0050917 63.19087526 -17.168849 63.12703517 -13.0625 60.375 C-8.61166004 56.7758014 -6.8010249 53.15768319 -5.875 47.5625 C-5.66244082 43.93934847 -5.68989685 40.3163263 -5.6875 36.6875 C-5.66913086 35.23537109 -5.66913086 35.23537109 -5.65039062 33.75390625 C-5.63246212 24.96894045 -6.59687898 18.9901001 -12.875 12.5625 C-18.05383244 8.63373056 -26.68578022 9.68798056 -31.375 13.703125 Z " fill="#000000" transform="translate(742.875,59.4375)"/>
<path d="M0 0 C5.01172505 3.39473451 8.77292742 7.88198351 10.5703125 13.71484375 C10.5703125 16.68484375 10.5703125 19.65484375 10.5703125 22.71484375 C4.3003125 22.71484375 -1.9696875 22.71484375 -8.4296875 22.71484375 C-9.0896875 20.40484375 -9.7496875 18.09484375 -10.4296875 15.71484375 C-12.63259516 13.34804361 -13.85311026 12.79475684 -17.05078125 12.3515625 C-18.44490234 12.37669922 -18.44490234 12.37669922 -19.8671875 12.40234375 C-21.25744141 12.40814453 -21.25744141 12.40814453 -22.67578125 12.4140625 C-25.57250194 12.73044192 -27.78850653 13.51169235 -30.4296875 14.71484375 C-30.67984623 18.13127134 -30.67984623 18.13127134 -30.4296875 21.71484375 C-29.4396875 22.37484375 -28.4496875 23.03484375 -27.4296875 23.71484375 C-27.4296875 24.37484375 -27.4296875 25.03484375 -27.4296875 25.71484375 C-23.4696875 26.70484375 -19.5096875 27.69484375 -15.4296875 28.71484375 C-15.4296875 29.37484375 -15.4296875 30.03484375 -15.4296875 30.71484375 C-13.851875 30.90046875 -13.851875 30.90046875 -12.2421875 31.08984375 C-8.97009979 31.62625157 -6.42432674 32.3536441 -3.4296875 33.71484375 C-3.4296875 34.37484375 -3.4296875 35.03484375 -3.4296875 35.71484375 C-2.4603125 35.98296875 -1.4909375 36.25109375 -0.4921875 36.52734375 C1.02375 37.11515625 1.02375 37.11515625 2.5703125 37.71484375 C2.9003125 38.70484375 3.2303125 39.69484375 3.5703125 40.71484375 C4.5603125 41.04484375 5.5503125 41.37484375 6.5703125 41.71484375 C11.28931461 48.59110397 11.69926863 55.53702705 10.5703125 63.71484375 C9.35203811 66.79874129 7.95586123 69.38712651 5.5703125 71.71484375 C4.9103125 71.71484375 4.2503125 71.71484375 3.5703125 71.71484375 C3.0753125 73.19984375 3.0753125 73.19984375 2.5703125 74.71484375 C-6.30921126 81.688806 -18.80066291 80.80572883 -29.4296875 79.71484375 C-36.37440977 78.34879399 -42.9273249 75.37819293 -47.4296875 69.71484375 C-48.109375 67.52734375 -48.109375 67.52734375 -48.4296875 65.71484375 C-49.0896875 65.71484375 -49.7496875 65.71484375 -50.4296875 65.71484375 C-53.05707234 60.78849718 -52.57486065 56.15883704 -52.4296875 50.71484375 C-46.4896875 50.71484375 -40.5496875 50.71484375 -34.4296875 50.71484375 C-33.9140625 52.30296875 -33.3984375 53.89109375 -32.8671875 55.52734375 C-31.2991575 59.43085505 -30.77579563 60.49281212 -27.1171875 62.83984375 C-21.51223721 64.16983195 -17.57440863 64.58829272 -12.4921875 61.71484375 C-10.97625 60.72484375 -10.97625 60.72484375 -9.4296875 59.71484375 C-9.4296875 57.07484375 -9.4296875 54.43484375 -9.4296875 51.71484375 C-11.0796875 51.05484375 -12.7296875 50.39484375 -14.4296875 49.71484375 C-14.4296875 49.05484375 -14.4296875 48.39484375 -14.4296875 47.71484375 C-15.5021875 47.65296875 -16.5746875 47.59109375 -17.6796875 47.52734375 C-22.76339367 46.91802655 -27.13880657 44.92107043 -31.79296875 42.87109375 C-34.45713889 41.65492286 -34.45713889 41.65492286 -37.4296875 40.71484375 C-37.7596875 40.05484375 -38.0896875 39.39484375 -38.4296875 38.71484375 C-39.2753125 38.21984375 -40.1209375 37.72484375 -40.9921875 37.21484375 C-41.7965625 36.71984375 -42.6009375 36.22484375 -43.4296875 35.71484375 C-43.4296875 35.05484375 -43.4296875 34.39484375 -43.4296875 33.71484375 C-44.0278125 33.50859375 -44.6259375 33.30234375 -45.2421875 33.08984375 C-48.34980788 31.13648237 -49.05244447 29.09534938 -50.4296875 25.71484375 C-50.72265625 22.06640625 -50.72265625 22.06640625 -50.6171875 18.33984375 C-50.59011719 17.09460938 -50.56304688 15.849375 -50.53515625 14.56640625 C-50.48294922 13.15488281 -50.48294922 13.15488281 -50.4296875 11.71484375 C-49.7696875 11.71484375 -49.1096875 11.71484375 -48.4296875 11.71484375 C-48.3678125 10.99296875 -48.3059375 10.27109375 -48.2421875 9.52734375 C-47.1743124 5.83085301 -45.32148934 4.18345507 -42.4296875 1.71484375 C-41.7696875 1.71484375 -41.1096875 1.71484375 -40.4296875 1.71484375 C-40.4296875 1.05484375 -40.4296875 0.39484375 -40.4296875 -0.28515625 C-38.21868405 -1.0221574 -36.00740028 -1.75771084 -33.79296875 -2.484375 C-32.00565043 -3.08999526 -30.24177038 -3.76537806 -28.4921875 -4.47265625 C-18.73060581 -7.06246364 -8.806525 -4.65811371 0 0 Z " fill="#000000" transform="translate(763.4296875,168.28515625)"/>
<path d="M0 0 C4.19796763 0.04756904 7.39121256 0.60229869 11.3125 2.1875 C12.02277344 2.37054688 12.73304688 2.55359375 13.46484375 2.7421875 C18.93279569 4.21607804 21.74293205 6.10210055 25.12109375 10.6640625 C26.25378108 12.33691421 26.25378108 12.33691421 28.3125 13.1875 C30.7499988 18.60416399 30.3125 21.72994165 30.3125 28.1875 C24.0425 28.1875 17.7725 28.1875 11.3125 28.1875 C10.3225 25.2175 9.3325 22.2475 8.3125 19.1875 C5.40163331 18.2172111 3.41026315 18.02282153 0.375 18 C-0.90697266 17.97873047 -0.90697266 17.97873047 -2.21484375 17.95703125 C-4.89416668 18.20676277 -6.47451807 18.66079112 -8.6875 20.1875 C-9.5629039 23.56405789 -10.09724489 26.01920176 -8.92578125 29.359375 C-7.69132774 31.6255066 -7.69132774 31.6255066 -4 32.0625 C-3.21367187 32.20171875 -2.42734375 32.3409375 -1.6171875 32.484375 C4.58575242 33.97308058 10.44126706 36.72761584 16.3125 39.1875 C16.3125 39.8475 16.3125 40.5075 16.3125 41.1875 C17.034375 41.249375 17.75625 41.31125 18.5 41.375 C23.40317379 42.79147243 26.60261321 46.98717547 29.3125 51.1875 C30.51665281 54.78334941 30.47973783 58.29373706 30.5 62.0625 C30.51417969 63.25617188 30.52835937 64.44984375 30.54296875 65.6796875 C30.21005687 70.74671913 29.26832015 74.08076087 25.9375 77.9375 C22.08183435 81.24235627 20.44773288 82.1875 15.3125 82.1875 C15.3125 82.8475 15.3125 83.5075 15.3125 84.1875 C12.29698936 85.06109586 9.60394706 85.31606919 6.46875 85.3203125 C5.55222656 85.32160156 4.63570313 85.32289063 3.69140625 85.32421875 C2.74136719 85.32035156 1.79132813 85.31648438 0.8125 85.3125 C-0.61255859 85.31830078 -0.61255859 85.31830078 -2.06640625 85.32421875 C-2.98292969 85.32292969 -3.89945312 85.32164062 -4.84375 85.3203125 C-5.67712891 85.31918457 -6.51050781 85.31805664 -7.36914062 85.31689453 C-9.60426518 85.19214558 -11.54250337 84.80890725 -13.6875 84.1875 C-13.6875 83.5275 -13.6875 82.8675 -13.6875 82.1875 C-14.5125 82.14625 -15.3375 82.105 -16.1875 82.0625 C-21.90481401 80.6331715 -25.90990613 77.71468164 -29.30859375 72.8828125 C-32.76572889 66.59533159 -32.6875 64.12732525 -32.6875 56.1875 C-26.4175 56.1875 -20.1475 56.1875 -13.6875 56.1875 C-13.3575 59.1575 -13.0275 62.1275 -12.6875 65.1875 C-11.945 65.47625 -11.2025 65.765 -10.4375 66.0625 C-7.6875 67.1875 -7.6875 67.1875 -5.875 68.3125 C-2.4860802 69.66806792 0.75583134 69.73258332 4.3125 69.1875 C7.86749412 67.76344383 7.86749412 67.76344383 10.3125 65.1875 C10.98510727 61.06778047 10.64708635 59.68937953 8.3125 56.1875 C7.3225 55.8575 6.3325 55.5275 5.3125 55.1875 C5.3125 54.5275 5.3125 53.8675 5.3125 53.1875 C4.3121875 53.07921875 3.311875 52.9709375 2.28125 52.859375 C-1.75700182 52.27841925 -5.42570121 50.98270524 -9.1875 49.4375 C-10.17423706 49.036521 -10.17423706 49.036521 -11.1809082 48.62744141 C-17.99918636 45.77059727 -25.30939836 41.89256132 -28.77734375 35.03125 C-29.91378426 31.4804831 -29.95239814 28.41203531 -29.9375 24.6875 C-29.94265625 23.3984375 -29.9478125 22.109375 -29.953125 20.78125 C-29.70580367 17.4351379 -29.1380069 15.18060947 -27.6875 12.1875 C-27.0275 12.1875 -26.3675 12.1875 -25.6875 12.1875 C-25.44 11.548125 -25.1925 10.90875 -24.9375 10.25 C-23.6875 8.1875 -23.6875 8.1875 -21.625 7.625 C-20.985625 7.480625 -20.34625 7.33625 -19.6875 7.1875 C-19.3575 6.1975 -19.0275 5.2075 -18.6875 4.1875 C-15.78125 3.2734375 -15.78125 3.2734375 -12.1875 2.5625 C-7.71293988 1.65786067 -4.46104158 0.03334112 0 0 Z " fill="#000000" transform="translate(320.6875,162.8125)"/>
<path d="M0 0 C18.81 0 37.62 0 57 0 C57 4.95 57 9.9 57 15 C44.79 15 32.58 15 20 15 C20 20.28 20 25.56 20 31 C30.23 31 40.46 31 51 31 C52.43316898 33.86633795 52.13200361 36.37235501 52.125 39.5625 C52.12886719 41.32787109 52.12886719 41.32787109 52.1328125 43.12890625 C52 46 52 46 51 47 C48.70848583 47.08790975 46.41427476 47.10694038 44.12109375 47.09765625 C43.09110008 47.09553383 43.09110008 47.09553383 42.04029846 47.09336853 C39.83932199 47.08775479 37.63844591 47.07520007 35.4375 47.0625 C33.94856917 47.05748676 32.45963676 47.05292355 30.97070312 47.04882812 C27.31373195 47.03863021 23.65697883 47.01905779 20 47 C20 52.94 20 58.88 20 65 C32.21 65 44.42 65 57 65 C57 70.28 57 75.56 57 81 C49.20378551 81.04931912 41.40766119 81.08568111 33.61132812 81.10986328 C30.95734069 81.11994089 28.3033644 81.13360313 25.64941406 81.15087891 C21.84176893 81.17504992 18.03427016 81.18646535 14.2265625 81.1953125 C12.43745956 81.21079636 12.43745956 81.21079636 10.61221313 81.22659302 C8.96072769 81.22681961 8.96072769 81.22681961 7.27587891 81.22705078 C5.8169371 81.23371262 5.8169371 81.23371262 4.32852173 81.24050903 C2 81 2 81 0 79 C-0.1878075 76.47023465 -0.25191906 74.05092595 -0.22705078 71.52099609 C-0.22734283 70.75017197 -0.22763489 69.97934784 -0.22793579 69.18516541 C-0.22653974 66.63114255 -0.21096579 64.07740954 -0.1953125 61.5234375 C-0.19158334 59.75509806 -0.18873591 57.98675655 -0.18673706 56.21841431 C-0.17909293 51.55930905 -0.15943778 46.90032806 -0.1373291 42.24127197 C-0.11329476 36.65376351 -0.1040934 31.06621355 -0.09242249 25.47866821 C-0.07301379 16.98569232 -0.03469673 8.49298922 0 0 Z " fill="#000000" transform="translate(356,166)"/>
<path d="M0 0 C18.48 0 36.96 0 56 0 C56 5.28 56 10.56 56 16 C43.79 16 31.58 16 19 16 C19 21.61 19 27.22 19 33 C29.56 33 40.12 33 51 33 C51 37.95 51 42.9 51 48 C40.44 48 29.88 48 19 48 C19 53.61 19 59.22 19 65 C21.50335937 64.98839844 24.00671875 64.97679688 26.5859375 64.96484375 C29.00520704 64.95704941 31.4244752 64.95097479 33.84375 64.94506836 C35.52767562 64.94003347 37.21159686 64.93320519 38.89550781 64.92456055 C41.31316203 64.91245804 43.73075856 64.90676332 46.1484375 64.90234375 C46.9036972 64.89718246 47.65895691 64.89202118 48.43710327 64.88670349 C53.77225659 64.88612829 53.77225659 64.88612829 56 66 C56 71.28 56 76.56 56 82 C37.52 82 19.04 82 0 82 C0 54.94 0 27.88 0 0 Z " fill="#000000" transform="translate(829,55)"/>
<path d="M0 0 C18.48 0 36.96 0 56 0 C56 5.28 56 10.56 56 16 C43.79 16 31.58 16 19 16 C19 21.61 19 27.22 19 33 C29.56 33 40.12 33 51 33 C51 37.62 51 42.24 51 47 C50 48 50 48 47.04077148 48.11352539 C45.74727783 48.10828857 44.45378418 48.10305176 43.12109375 48.09765625 C42.09110008 48.09553383 42.09110008 48.09553383 41.04029846 48.09336853 C38.83932199 48.08775479 36.63844591 48.07520007 34.4375 48.0625 C32.94856917 48.05748676 31.45963676 48.05292355 29.97070312 48.04882812 C26.31373195 48.03863021 22.65697883 48.01905779 19 48 C19 53.61 19 59.22 19 65 C21.50335937 64.98839844 24.00671875 64.97679688 26.5859375 64.96484375 C29.00520704 64.95704941 31.4244752 64.95097479 33.84375 64.94506836 C35.52767562 64.94003347 37.21159686 64.93320519 38.89550781 64.92456055 C41.31316203 64.91245804 43.73075856 64.90676332 46.1484375 64.90234375 C46.9036972 64.89718246 47.65895691 64.89202118 48.43710327 64.88670349 C53.77225659 64.88612829 53.77225659 64.88612829 56 66 C56 71.28 56 76.56 56 82 C37.52 82 19.04 82 0 82 C0 54.94 0 27.88 0 0 Z " fill="#000000" transform="translate(1124,55)"/>
<path d="M0 0 C18.15 0 36.3 0 55 0 C55 4.95 55 9.9 55 15 C43.12 15 31.24 15 19 15 C19 20.28 19 25.56 19 31 C29.23 31 39.46 31 50 31 C50 36.28 50 41.56 50 47 C39.77 47 29.54 47 19 47 C19 52.94 19 58.88 19 65 C30.88 65 42.76 65 55 65 C56 79 56 79 55 81 C36.85 81 18.7 81 0 81 C0 54.27 0 27.54 0 0 Z " fill="#000000" transform="translate(654,166)"/>
<path d="M0 0 C39 0 39 0 48 2 C48 2.66 48 3.32 48 4 C48.969375 4.268125 49.93875 4.53625 50.9375 4.8125 C51.948125 5.204375 52.95875 5.59625 54 6 C54.495 7.485 54.495 7.485 55 9 C56.32350844 9.68596474 57.65770724 10.35156158 59 11 C64.3201396 18.24130112 64.26067401 27.34235918 63 36 C61.83115707 39.50190886 60.32409916 42.14830361 58 45 C57.34 45.825 56.68 46.65 56 47.5 C53.66899816 49.24825138 51.87291912 49.68078676 49 50 C49 50.66 49 51.32 49 52 C42.38525617 54.00017254 36.38003664 54.24145359 29.5 54.125 C26.035 54.08375 22.57 54.0425 19 54 C19 63.24 19 72.48 19 82 C12.73 82 6.46 82 0 82 C0 54.94 0 27.88 0 0 Z M19 16 C19 23.26 19 30.52 19 38 C25.27 38 31.54 38 38 38 C38 37.34 38 36.68 38 36 C38.804375 35.731875 39.60875 35.46375 40.4375 35.1875 C41.7059375 34.5996875 41.7059375 34.5996875 43 34 C44.49084832 29.52745503 44.49084832 25.47254497 43 21 C39.46736273 17.20241493 36.90241997 15.9008647 31.75390625 15.6796875 C27.48723564 15.60751349 23.27687247 15.83422975 19 16 Z " fill="#000000" transform="translate(552,55)"/>
<path d="M0 0 C1.6222986 0.54970449 3.24748662 1.09093262 4.875 1.625 C6.25 2.08333333 7.625 2.54166667 9 3 C9 3.66 9 4.32 9 5 C11.475 5.99 11.475 5.99 14 7 C14 7.66 14 8.32 14 9 C14.66 9 15.32 9 16 9 C17.02310085 10.79956131 18.01736346 12.61552808 19 14.4375 C19.556875 15.44683594 20.11375 16.45617187 20.6875 17.49609375 C22 21 22 21 22 30 C15.73 30 9.46 30 3 30 C2.34 27.03 1.68 24.06 1 21 C0.34 19.68 -0.32 18.36 -1 17 C-6.57807488 15.40626432 -14.55226634 14.91704301 -20 17 C-21.27587495 19.3140387 -21.27587495 19.3140387 -22 22 C-22.350625 22.639375 -22.70125 23.27875 -23.0625 23.9375 C-27.38645606 33.45020333 -26.122734 49.30308914 -23 59 C-21.72104942 61.94455734 -21.72104942 61.94455734 -20 64 C-16.70907406 65.09697531 -14.08887841 65.2371983 -10.625 65.3125 C-9.50351562 65.34988281 -8.38203125 65.38726562 -7.2265625 65.42578125 C-3.18586171 64.89256529 -1.71026795 64.04067164 1 61 C1.66 58.36 2.32 55.72 3 53 C9.27 53 15.54 53 22 53 C22 62 22 62 21 65 C20.34 65 19.68 65 19 65 C18.9071875 66.0828125 18.9071875 66.0828125 18.8125 67.1875 C17.72804688 70.94137619 15.90561133 72.41723437 13 75 C12.071875 75.86625 11.14375 76.7325 10.1875 77.625 C3.54561943 82.57385219 -2.81181679 83.55905128 -10.875 83.5 C-11.75687988 83.49572998 -12.63875977 83.49145996 -13.54736328 83.48706055 C-20.34821968 83.30908363 -25.46127167 82.13153109 -31 78 C-31.63421875 77.55785156 -32.2684375 77.11570312 -32.921875 76.66015625 C-34.625 75.375 -34.625 75.375 -37 73 C-37 72.01 -37 71.02 -37 70 C-37.99 69.67 -38.98 69.34 -40 69 C-41.70533217 65.67908998 -42 63.81507216 -42 60 C-42.66 60 -43.32 60 -44 60 C-45.39976931 53.86875565 -45.30308761 47.76291533 -45.375 41.5 C-45.41238281 40.29601562 -45.44976563 39.09203125 -45.48828125 37.8515625 C-45.58174982 28.19314356 -43.30094871 20.60189741 -39 12 C-38.34 12 -37.68 12 -37 12 C-36.6596875 10.824375 -36.6596875 10.824375 -36.3125 9.625 C-35 7 -35 7 -32.375 5.6875 C-31.59125 5.460625 -30.8075 5.23375 -30 5 C-30 4.34 -30 3.68 -30 3 C-28.04943892 2.26013201 -26.09787328 1.52277318 -24.140625 0.80078125 C-22.45618035 0.17065141 -20.78723667 -0.50092398 -19.125 -1.1875 C-12.54560812 -2.89814189 -6.30018101 -2.54688168 0 0 Z " fill="#000000" transform="translate(627,165)"/>
<path d="M0 0 C0 0.66 0 1.32 0 2 C0.804375 2.268125 1.60875 2.53625 2.4375 2.8125 C3.7059375 3.4003125 3.7059375 3.4003125 5 4 C5.495 5.485 5.495 5.485 6 7 C6.63550781 7.30808594 7.27101563 7.61617187 7.92578125 7.93359375 C10.53900959 9.27711792 11.03442982 10.39396615 12.1875 13.0625 C12.51105469 13.77535156 12.83460938 14.48820312 13.16796875 15.22265625 C14 18 14 18 15 27 C8.4 27 1.8 27 -5 27 C-5.495 22.545 -5.495 22.545 -6 18 C-6.99 17.67 -7.98 17.34 -9 17 C-9.495 16.01 -9.495 16.01 -10 15 C-15.07653589 13.26709059 -20.78144324 13.21117982 -25.8125 15 C-30.14436177 18.96055934 -31.81461273 22.89415826 -32.3215332 28.65234375 C-32.44236535 32.93705605 -32.34967668 37.21578334 -32.25 41.5 C-32.22990494 43.00518458 -32.21165948 44.51039505 -32.1953125 46.015625 C-32.15155298 49.67762737 -32.08269216 53.33864578 -32 57 C-31.34 57 -30.68 57 -30 57 C-29.54625 57.78375 -29.0925 58.5675 -28.625 59.375 C-26.84416819 62.25172831 -26.05884102 62.78966722 -23 64 C-18.15956106 64.75686863 -14.83081225 64.48338167 -10.5625 62 C-9.716875 61.34 -8.87125 60.68 -8 60 C-7.34 60 -6.68 60 -6 60 C-5.67 57.03 -5.34 54.06 -5 51 C1.27 51 7.54 51 14 51 C14 60.49171294 12.64413077 65.71570083 6.44140625 72.7734375 C3.52589266 75.39361335 0.89624016 76.6562141 -3 77 C-3 77.66 -3 78.32 -3 79 C-12.93450892 82.24392128 -24.06549108 82.24392128 -34 79 C-34 78.34 -34 77.68 -34 77 C-34.72832031 76.93296875 -35.45664062 76.8659375 -36.20703125 76.796875 C-39.84828239 75.75797258 -41.21583364 74.0867512 -43.6875 71.25 C-44.45449219 70.38890625 -45.22148438 69.5278125 -46.01171875 68.640625 C-49.03163489 64.62989158 -50 62.03498101 -50 57 C-50.66 57 -51.32 57 -52 57 C-53.30643229 51.0277381 -53.1470264 45.07928649 -53.125 39 C-53.12886719 37.93265625 -53.13273438 36.8653125 -53.13671875 35.765625 C-53.13046636 30.73870265 -53.07989207 25.93664946 -52 21 C-51.34 21 -50.68 21 -50 21 C-49.979375 20.05125 -49.95875 19.1025 -49.9375 18.125 C-49.01665295 11.83254514 -44.77571151 6.37760149 -40.0390625 2.3203125 C-28.63713223 -5.29599665 -12.40497402 -5.00970105 0 0 Z " fill="#000000" transform="translate(939,57)"/>
<path d="M0 0 C0 0.66 0 1.32 0 2 C0.7425 2.226875 1.485 2.45375 2.25 2.6875 C5.63024532 4.30079891 6.88065218 5.92352735 9 9 C9.721875 10.03125 10.44375 11.0625 11.1875 12.125 C13.82914413 16.79708433 13.73981276 21.73120849 14 27 C7.73 27 1.46 27 -5 27 C-5.391875 25.411875 -5.78375 23.82375 -6.1875 22.1875 C-7.16196198 19.04163415 -7.72589456 17.29123703 -10 14.875 C-15.17666445 13.36513954 -20.84310049 12.68515453 -25.94140625 14.80859375 C-30.47197561 18.09013397 -31.77157367 22.81282008 -33 28 C-33.42001181 31.65763113 -33.46558222 35.25872886 -33.4375 38.9375 C-33.45748047 39.86240234 -33.47746094 40.78730469 -33.49804688 41.74023438 C-33.49378083 47.82788274 -32.38745223 52.46527525 -29.85961914 58.00610352 C-29 60 -29 60 -29 62 C-28.360625 62.144375 -27.72125 62.28875 -27.0625 62.4375 C-25 63 -25 63 -24 64 C-22.15108054 64.23363881 -20.29511969 64.41303635 -18.4375 64.5625 C-16.91962891 64.68818359 -16.91962891 64.68818359 -15.37109375 64.81640625 C-14.58863281 64.87699219 -13.80617188 64.93757813 -13 65 C-13 64.34 -13 63.68 -13 63 C-11.8553125 62.814375 -11.8553125 62.814375 -10.6875 62.625 C-7.37314472 60.62097123 -7.2540408 59.50534082 -6.1875 55.875 C-5.795625 54.26625 -5.40375 52.6575 -5 51 C1.27 51 7.54 51 14 51 C14 59.59987641 12.24213989 65.23594853 7 72 C6.34 72 5.68 72 5 72 C4.505 73.485 4.505 73.485 4 75 C1.890625 76.3515625 1.890625 76.3515625 -0.75 77.625 C-1.61109375 78.05039063 -2.4721875 78.47578125 -3.359375 78.9140625 C-12.19012928 82.54564488 -24.28499226 82.46355103 -33.140625 78.91796875 C-38.64023878 76.20282329 -43.66248585 72.94253113 -46.25 67.25 C-46.4975 66.5075 -46.745 65.765 -47 65 C-47.66 65 -48.32 65 -49 65 C-52.54272983 56.18756042 -53.62392414 48.45954297 -53.5 39 C-53.52320313 37.22882813 -53.52320313 37.22882813 -53.546875 35.421875 C-53.51100879 27.28024453 -52.03395605 20.54687929 -49 13 C-48.34 13 -47.68 13 -47 13 C-46.5978125 11.7934375 -46.5978125 11.7934375 -46.1875 10.5625 C-45.795625 9.716875 -45.40375 8.87125 -45 8 C-44.01 7.67 -43.02 7.34 -42 7 C-41.690625 6.34 -41.38125 5.68 -41.0625 5 C-40 3 -40 3 -37.875 2.25 C-37.25625 2.1675 -36.6375 2.085 -36 2 C-36 1.34 -36 0.68 -36 0 C-24.14051651 -4.68798406 -11.93613262 -4.16896108 0 0 Z " fill="#000000" transform="translate(342,57)"/>
<path d="M0 0 C0.83265381 0.00523682 1.66530762 0.01047363 2.52319336 0.01586914 C3.42231445 0.0190918 4.32143555 0.02231445 5.24780273 0.02563477 C6.66609375 0.03820313 6.66609375 0.03820313 8.11303711 0.05102539 C9.06243164 0.05553711 10.01182617 0.06004883 10.98999023 0.06469727 C13.34356776 0.07652429 15.69702188 0.09300514 18.05053711 0.11352539 C18.55811573 1.52749441 19.05628636 2.94484268 19.55053711 4.36352539 C19.82897461 5.15243164 20.10741211 5.94133789 20.39428711 6.75415039 C21.05053711 9.11352539 21.05053711 9.11352539 21.05053711 13.11352539 C21.71053711 13.11352539 22.37053711 13.11352539 23.05053711 13.11352539 C23.30448242 14.16411133 23.55842773 15.21469727 23.82006836 16.29711914 C26.21634603 26.14560446 26.21634603 26.14560446 29.25756836 35.80883789 C30.99671905 40.8635123 32.49365782 46.00032285 34.05053711 51.11352539 C34.71053711 50.78352539 35.37053711 50.45352539 36.05053711 50.11352539 C36.85099374 47.42293941 37.546003 44.78133812 38.17553711 42.05102539 C38.35729492 41.29241211 38.53905273 40.53379883 38.72631836 39.75219727 C39.17510295 37.87438804 39.61377046 35.99416624 40.05053711 34.11352539 C40.71053711 34.11352539 41.37053711 34.11352539 42.05053711 34.11352539 C42.23616211 32.38102539 42.23616211 32.38102539 42.42553711 30.61352539 C42.95332596 26.33002164 43.93451748 22.27999867 45.05053711 18.11352539 C45.71053711 18.11352539 46.37053711 18.11352539 47.05053711 18.11352539 C47.08791992 17.55665039 47.12530273 16.99977539 47.16381836 16.42602539 C48.24092528 3.92313722 48.24092528 3.92313722 52.05053711 0.11352539 C53.53925571 0.02683107 55.03198211 0.00649045 56.52319336 0.01586914 C57.42231445 0.0190918 58.32143555 0.02231445 59.24780273 0.02563477 C60.66609375 0.03820313 60.66609375 0.03820313 62.11303711 0.05102539 C63.53712891 0.05779297 63.53712891 0.05779297 64.98999023 0.06469727 C67.34356776 0.07652429 69.69702188 0.09300514 72.05053711 0.11352539 C71.49982721 5.03931949 70.8546145 9.11097015 68.99194336 13.75415039 C65.32259232 22.95036626 62.24590374 32.39249689 59.19384766 41.80834961 C58.07156216 45.23087883 56.89351427 48.57202636 55.44506836 51.87133789 C54.3285791 54.46709722 53.48773817 56.81195153 52.86303711 59.55102539 C52.59491211 60.72665039 52.32678711 61.90227539 52.05053711 63.11352539 C51.39053711 63.11352539 50.73053711 63.11352539 50.05053711 63.11352539 C49.86491211 64.62946289 49.86491211 64.62946289 49.67553711 66.17602539 C49.06968376 69.99290151 48.17859799 73.42852651 47.05053711 77.11352539 C46.39053711 77.11352539 45.73053711 77.11352539 45.05053711 77.11352539 C44.72053711 78.76352539 44.39053711 80.41352539 44.05053711 82.11352539 C37.78053711 82.11352539 31.51053711 82.11352539 25.05053711 82.11352539 C18.05053711 65.71878855 18.05053711 65.71878855 18.05053711 59.11352539 C17.39053711 59.11352539 16.73053711 59.11352539 16.05053711 59.11352539 C15.7965918 58.18411133 15.54264648 57.25469727 15.28100586 56.29711914 C13.24762414 48.61867709 13.24762414 48.61867709 10.36303711 41.23852539 C8.76729063 37.43912901 8.40957017 34.20650232 8.05053711 30.11352539 C7.39053711 30.11352539 6.73053711 30.11352539 6.05053711 30.11352539 C5.7965918 29.19571289 5.54264648 28.27790039 5.28100586 27.33227539 C3.10101503 19.42483576 3.10101503 19.42483576 0.42553711 11.67602539 C-0.92613388 8.17396875 -1.96947381 4.73194662 -2.94946289 1.11352539 C-1.94946289 0.11352539 -1.94946289 0.11352539 0 0 Z " fill="#000000" transform="translate(1049.949462890625,54.886474609375)"/>
<path d="M0 0 C6.6 0 13.2 0 20 0 C22.91351411 6.65946083 24.89512667 13.19286193 26.56274414 20.23852539 C27.40254701 23.74569219 28.31094921 27.10303958 29.6875 30.4375 C31.23571649 34.63980191 31.70177301 38.55744623 32 43 C32.66 43 33.32 43 34 43 C34.66 45.64 35.32 48.28 36 51 C38.54286158 45.41179521 40.3948343 39.76104108 42.125 33.875 C42.52138672 32.55435547 42.52138672 32.55435547 42.92578125 31.20703125 C44.13047223 27.15266516 45.21296377 23.15926145 46 19 C46.66 19 47.32 19 48 19 C48.103125 17.865625 48.20625 16.73125 48.3125 15.5625 C48.97894611 10.14400339 50.55583143 4.88833715 53 0 C59.93 0 66.86 0 74 0 C72.62560815 6.18476331 71.25314284 11.2201988 69 17 C68.64862912 18.32869387 68.31033483 19.6611269 68 21 C67.34 21 66.68 21 66 21 C65.9071875 22.546875 65.9071875 22.546875 65.8125 24.125 C65.15588484 29.54207507 63.16847722 34.45439925 61.25390625 39.53515625 C59.99948842 43.00141361 58.97312769 46.4469524 58 50 C57.34 50 56.68 50 56 50 C55.87625 51.010625 55.7525 52.02125 55.625 53.0625 C55.01914665 56.87937612 54.12806088 60.31500112 53 64 C52.34 64 51.68 64 51 64 C50.9175 65.134375 50.835 66.26875 50.75 67.4375 C50.14765528 72.46303284 48.19553401 76.46728462 46 81 C39.73 81 33.46 81 27 81 C24 74 24 74 24 70 C23.34 70 22.68 70 22 70 C21.49363393 68.25183142 20.99515381 66.50137737 20.5 64.75 C20.2215625 63.77546875 19.943125 62.8009375 19.65625 61.796875 C19 59 19 59 19 55 C18.34 55 17.68 55 17 55 C16.49307308 53.4188708 15.99473557 51.83498617 15.5 50.25 C15.2215625 49.36828125 14.943125 48.4865625 14.65625 47.578125 C14 45 14 45 14 41 C13.34 41 12.68 41 12 41 C11.82984375 40.32195312 11.6596875 39.64390625 11.484375 38.9453125 C10.26578478 34.2654075 8.97687145 29.72159203 7.125 25.25 C5.34188772 20.94426764 3.7549599 16.59648698 2.25 12.1875 C1.82203125 10.94355469 1.3940625 9.69960937 0.953125 8.41796875 C0 5 0 5 0 0 Z " fill="#000000" transform="translate(479,166)"/>
<path d="M0 0 C1.18802719 0.00222061 2.37605438 0.00444122 3.6000824 0.00672913 C4.58053528 0.00651009 4.58053528 0.00651009 5.58079529 0.00628662 C7.75058766 0.00698569 9.92029517 0.01477774 12.09007263 0.02259827 C13.59079949 0.02446247 15.09152696 0.02588636 16.59225464 0.02688599 C20.54934865 0.03071099 24.50640616 0.04054112 28.46348572 0.05158997 C32.49851488 0.06180446 36.53354991 0.06638369 40.56858826 0.07142639 C48.49113294 0.08216341 56.41364092 0.09976006 64.33616638 0.12025452 C64.33616638 5.40025452 64.33616638 10.68025452 64.33616638 16.12025452 C56.41616638 16.12025452 48.49616638 16.12025452 40.33616638 16.12025452 C40.3414032 18.08406067 40.34664001 20.04786682 40.35203552 22.07118225 C40.36813277 28.54521331 40.37963848 35.01923965 40.38797855 41.49328518 C40.39320669 45.4201411 40.40030308 49.34697546 40.41160583 53.27381897 C40.42243719 57.06039709 40.42844374 60.84695442 40.43104362 64.63354683 C40.43289743 66.08129771 40.43651719 67.5290474 40.44189644 68.97678947 C40.44911006 70.99782586 40.44957446 73.01888299 40.44969177 75.03993225 C40.45191238 76.19242966 40.454133 77.34492706 40.4564209 78.53234863 C40.33616638 81.12025452 40.33616638 81.12025452 39.33616638 82.12025452 C38.00573013 82.21862662 36.67023294 82.25104044 35.33616638 82.25306702 C34.53179138 82.25435608 33.72741638 82.25564514 32.89866638 82.25697327 C32.05304138 82.25310608 31.20741638 82.24923889 30.33616638 82.24525452 C29.49054138 82.2491217 28.64491638 82.25298889 27.77366638 82.25697327 C26.96929138 82.2556842 26.16491638 82.25439514 25.33616638 82.25306702 C24.59366638 82.25193909 23.85116638 82.25081116 23.08616638 82.24964905 C21.33616638 82.12025452 21.33616638 82.12025452 20.33616638 81.12025452 C20.24207159 79.0953122 20.21873517 77.06705582 20.22264099 75.03993225 C20.22271652 73.73865891 20.22279205 72.43738556 20.22286987 71.09667969 C20.22797729 69.6657355 20.2331933 68.23479169 20.23851013 66.80384827 C20.24037435 65.34796192 20.24179824 63.89207494 20.24279785 62.43618774 C20.24662273 58.59746073 20.25645274 54.75877132 20.26750183 50.9200592 C20.27771661 47.00567636 20.28229561 43.09128746 20.28733826 39.17689514 C20.29807505 31.49133109 20.31515109 23.80579806 20.33616638 16.12025452 C19.64466492 16.12549133 18.95316345 16.13072815 18.2407074 16.13612366 C15.12670286 16.15682952 12.01271277 16.16989415 8.89866638 16.18275452 C7.8100531 16.19113342 6.72143982 16.19951233 5.59983826 16.20814514 C4.5653656 16.2113678 3.53089294 16.21459045 2.46507263 16.21791077 C1.50673523 16.22314758 0.54839783 16.2283844 -0.4389801 16.23377991 C-2.66383362 16.12025452 -2.66383362 16.12025452 -3.66383362 15.12025452 C-3.76292664 12.78865397 -3.79353866 10.4539551 -3.78883362 8.12025452 C-3.79141174 6.84150452 -3.79398987 5.56275452 -3.79664612 4.24525452 C-3.6231742 0.16356242 -3.6231742 0.16356242 0 0 Z " fill="#000000" transform="translate(956.6638336181641,54.87974548339844)"/>
<path d="M0 0 C1.16804169 0.00444122 2.33608337 0.00888245 3.53952026 0.01345825 C4.18354797 0.0131662 4.82757568 0.01287415 5.49111938 0.01257324 C7.623112 0.0139683 9.75475655 0.02953729 11.88668823 0.04519653 C13.36356414 0.04892605 14.84044252 0.05177331 16.31732178 0.05377197 C20.20704971 0.0614133 24.09662861 0.08106596 27.98629761 0.10317993 C31.95437606 0.12362768 35.92247855 0.13277139 39.89059448 0.14285278 C47.67843075 0.16431149 55.46611339 0.19949756 63.25387573 0.24050903 C63.25387573 5.52050903 63.25387573 10.80050903 63.25387573 16.24050903 C55.33387573 16.24050903 47.41387573 16.24050903 39.25387573 16.24050903 C39.25911255 18.20431519 39.26434937 20.16812134 39.26974487 22.19143677 C39.28584212 28.66546783 39.29734783 35.13949417 39.3056879 41.6135397 C39.31091604 45.54039562 39.31801243 49.46722998 39.32931519 53.39407349 C39.34014654 57.18065161 39.34615309 60.96720893 39.34875298 64.75380135 C39.35060678 66.20155223 39.35422654 67.64930192 39.35960579 69.09704399 C39.36681941 71.11808038 39.36728381 73.13913751 39.36740112 75.16018677 C39.36962173 76.31268417 39.37184235 77.46518158 39.37413025 78.65260315 C39.25387573 81.24050903 39.25387573 81.24050903 38.25387573 82.24050903 C35.42971191 82.36713994 32.6409278 82.42571451 29.81637573 82.42800903 C29.02682495 82.44025513 28.23727417 82.45250122 27.42379761 82.46511841 C25.36580139 82.47038183 23.30825564 82.36257189 21.25387573 82.24050903 C19.25387573 80.24050903 19.25387573 80.24050903 19.0133667 77.5703125 C19.02002853 75.87154465 19.02002853 75.87154465 19.02682495 74.13845825 C19.02697601 72.85728119 19.02712708 71.57610413 19.02728271 70.25610352 C19.03749678 68.85246629 19.04792878 67.44883064 19.05856323 66.04519653 C19.06229282 64.61316118 19.06514005 63.18112328 19.06713867 61.74908447 C19.07477946 57.97772186 19.09443165 54.206513 19.11654663 50.43521118 C19.13699554 46.58777954 19.14613834 42.74032309 19.15621948 38.89285278 C19.17767723 31.3420014 19.21181841 23.79127675 19.25387573 16.24050903 C18.59790405 16.25621948 17.94193237 16.27192993 17.26608276 16.28811646 C14.30376757 16.35034555 11.34158963 16.38946071 8.37887573 16.42800903 C7.34633667 16.45314575 6.31379761 16.47828247 5.24996948 16.50418091 C4.26383667 16.51384888 3.27770386 16.52351685 2.26168823 16.53347778 C1.35048218 16.54918823 0.43927612 16.56489868 -0.49954224 16.58108521 C-1.24091431 16.46869507 -1.98228638 16.35630493 -2.74612427 16.24050903 C-4.98846435 12.8769989 -5.01710642 11.61740847 -4.99612427 7.67800903 C-5.00128052 6.70734497 -5.00643677 5.73668091 -5.01174927 4.73660278 C-4.6222698 1.07664131 -3.62959818 0.31788479 0 0 Z " fill="#000000" transform="translate(761.7461242675781,54.759490966796875)"/>
<path d="M0 0 C1.18613892 0.00785522 1.18613892 0.00785522 2.39624023 0.01586914 C3.67724609 0.02070312 3.67724609 0.02070312 4.98413086 0.02563477 C5.88196289 0.03401367 6.77979492 0.04239258 7.70483398 0.05102539 C8.6065332 0.05553711 9.50823242 0.06004883 10.43725586 0.06469727 C12.67234712 0.07652315 14.90730835 0.09300319 17.14233398 0.11352539 C17.16545742 10.65733851 17.18324907 21.20114564 17.19414616 31.7449789 C17.19937499 36.64037913 17.20647262 41.53576207 17.21777344 46.43115234 C17.22860233 51.15140517 17.23461082 55.87164131 17.23721123 60.59190559 C17.23906547 62.39691493 17.24268608 64.20192331 17.24806404 66.00692558 C17.2552745 68.52612183 17.25632493 71.04524829 17.25585938 73.56445312 C17.25945465 74.31826767 17.26304993 75.07208221 17.26675415 75.84873962 C17.25638615 80.99947323 17.25638615 80.99947323 16.14233398 82.11352539 C14.79965985 82.19984413 13.45259077 82.22059012 12.10717773 82.21118164 C11.29829102 82.20795898 10.4894043 82.20473633 9.65600586 82.20141602 C8.80586914 82.19303711 7.95573242 82.1846582 7.07983398 82.17602539 C6.22583008 82.17151367 5.37182617 82.16700195 4.49194336 82.16235352 C2.37537735 82.15052912 0.25884713 82.13259308 -1.85766602 82.11352539 C-3.36909938 79.09065866 -2.99625409 75.96562264 -2.98706055 72.65039062 C-2.98881287 71.88117279 -2.99056519 71.11195496 -2.99237061 70.31942749 C-2.99678121 67.77030193 -2.99385419 65.22124543 -2.99047852 62.67211914 C-2.99115171 60.90617357 -2.99212187 59.14022809 -2.99337769 57.37428284 C-2.99485353 53.67122517 -2.99270347 49.96819159 -2.98803711 46.26513672 C-2.98233572 41.50773676 -2.98562213 36.75039316 -2.99160957 31.99299526 C-2.99521469 28.34629386 -2.9940769 24.69960593 -2.99148178 21.05290413 C-2.99081259 19.29813696 -2.99164066 17.54336859 -2.99396133 15.78860283 C-2.9964875 13.34145722 -2.99264799 10.89440429 -2.98706055 8.44726562 C-2.98908478 7.71529465 -2.99110901 6.98332367 -2.99319458 6.22917175 C-2.96748026 0.18134818 -2.96748026 0.18134818 0 0 Z " fill="#000000" transform="translate(1027.857666015625,54.886474609375)"/>
<path d="M0 0 C6.27 0 12.54 0 19 0 C19.02255102 10.54381693 19.04091508 21.08761797 19.05181217 31.63145351 C19.057041 36.52685374 19.06413864 41.42223668 19.07543945 46.31762695 C19.08626834 51.03787978 19.09227684 55.75811592 19.09487724 60.4783802 C19.09673149 62.28338954 19.10035209 64.08839792 19.10573006 65.89340019 C19.11294052 68.41259644 19.11399094 70.9317229 19.11352539 73.45092773 C19.11712067 74.20474228 19.12071594 74.95855682 19.12442017 75.73521423 C19.11405216 80.88594784 19.11405216 80.88594784 18 82 C12.06 82 6.12 82 0 82 C0 54.94 0 27.88 0 0 Z " fill="#000000" transform="translate(431,55)"/>
<path d="M0 0 C5.94 0 11.88 0 18 0 C18 26.73 18 53.46 18 81 C12.06 81 6.12 81 0 81 C0 54.27 0 27.54 0 0 Z " fill="#000000" transform="translate(556,166)"/>
<path d="M0 0 C3.125 1.25 3.125 1.25 4.2734375 3.515625 C4.63695312 4.41796875 5.00046875 5.3203125 5.375 6.25 C6.47140725 9.00902262 6.47140725 9.00902262 8.125 11.25 C10.8001418 12.11843918 12.92175947 12.19773654 15.72265625 12.08984375 C18.75423013 12.29194868 19.98727753 13.12695297 22.125 15.25 C22.375 18.4375 22.375 18.4375 22.125 21.25 C21.465 21.25 20.805 21.25 20.125 21.25 C19.63 22.735 19.63 22.735 19.125 24.25 C16.5625 25.9375 16.5625 25.9375 14.125 27.25 C14.26808594 28.71373047 14.26808594 28.71373047 14.4140625 30.20703125 C14.52492187 31.47933594 14.63578125 32.75164063 14.75 34.0625 C14.86601562 35.32707031 14.98203125 36.59164062 15.1015625 37.89453125 C15.125 41.25 15.125 41.25 13.125 44.25 C10.04578868 44.50660094 7.91363007 44.64431504 5.125 43.25 C5.125 42.59 5.125 41.93 5.125 41.25 C0.22096038 39.4499012 0.22096038 39.4499012 -4.8125 40.125 C-5.493125 40.49625 -6.17375 40.8675 -6.875 41.25 C-6.875 41.91 -6.875 42.57 -6.875 43.25 C-9.58379335 44.60439668 -11.88433268 44.31501451 -14.875 44.25 C-16.5 41.5625 -16.5 41.5625 -17.875 38.25 C-17.0625 35.75 -17.0625 35.75 -15.875 33.25 C-15.04150049 30.29340127 -15.04150049 30.29340127 -15.875 27.25 C-17.84967718 25.59006395 -19.94142915 24.20512499 -22.078125 22.76171875 C-23.875 21.25 -23.875 21.25 -24.625 18.0625 C-23.70868199 14.62630748 -22.87506866 14.04798635 -19.875 12.25 C-17.296875 11.73828125 -17.296875 11.73828125 -14.625 11.5625 C-13.73296875 11.49675781 -12.8409375 11.43101563 -11.921875 11.36328125 C-11.24640625 11.32589844 -10.5709375 11.28851563 -9.875 11.25 C-9.545 10.26 -9.215 9.27 -8.875 8.25 C-8.215 8.25 -7.555 8.25 -6.875 8.25 C-6.771875 7.30125 -6.66875 6.3525 -6.5625 5.375 C-5.63904969 1.1774986 -4.2230837 0.36722467 0 0 Z " fill="#000000" transform="translate(166.875,25.75)"/>
<path d="M0 0 C1.98 0 3.96 0 6 0 C6.33 1.98 6.66 3.96 7 6 C7.66 6 8.32 6 9 6 C9 6.66 9 7.32 9 8 C10.134375 7.979375 11.26875 7.95875 12.4375 7.9375 C16 8 16 8 17 9 C17.1875 11.4375 17.1875 11.4375 17 14 C16.34 14.66 15.68 15.32 15 16 C14.01 16 13.02 16 12 16 C12 18.31 12 20.62 12 23 C12.66 23 13.32 23 14 23 C13.01 25.475 13.01 25.475 12 28 C10.02 28 8.04 28 6 28 C5.67 27.34 5.34 26.68 5 26 C3.02 26 1.04 26 -1 26 C-1 26.66 -1 27.32 -1 28 C-2.65 28 -4.3 28 -6 28 C-6 27.34 -6 26.68 -6 26 C-6.66 26 -7.32 26 -8 26 C-8 24.02 -8 22.04 -8 20 C-7.34 20 -6.68 20 -6 20 C-6 19.34 -6 18.68 -6 18 C-6.66 18 -7.32 18 -8 18 C-10.125 16.3125 -10.125 16.3125 -12 14 C-12.25 11.25 -12.25 11.25 -12 9 C-9.04335481 7.5216774 -6.25770263 7.93967217 -3 8 C-2.87625 7.4225 -2.7525 6.845 -2.625 6.25 C-1.99351176 3.97664233 -1.11141809 2.0746471 0 0 Z " fill="#010101" transform="translate(248,70)"/>
</svg>
